<?xml version="1.0" encoding="UTF-8" standalone="no"?>
<svg
   xmlns:dc="http://purl.org/dc/elements/1.1/"
   xmlns:cc="http://creativecommons.org/ns#"
   xmlns:rdf="http://www.w3.org/1999/02/22-rdf-syntax-ns#"
   xmlns:svg="http://www.w3.org/2000/svg"
   xmlns="http://www.w3.org/2000/svg"
   xmlns:sodipodi="http://sodipodi.sourceforge.net/DTD/sodipodi-0.dtd"
   xmlns:inkscape="http://www.inkscape.org/namespaces/inkscape"
   width="0.729204in"
   height="1.14589in"
   viewBox="0 0 105 165"
   id="svg5436"
   version="1.1"
   inkscape:version="0.91 r"
   sodipodi:docname="corpus.svg">
  <metadata
     id="metadata5443">
    <rdf:RDF>
      <cc:Work
         rdf:about="">
        <dc:format>image/svg+xml</dc:format>
        <dc:type
           rdf:resource="http://purl.org/dc/dcmitype/StillImage" />
        <dc:title></dc:title>
      </cc:Work>
    </rdf:RDF>
  </metadata>
  <defs
     id="defs5441" />
  <sodipodi:namedview
     pagecolor="#ffffff"
     bordercolor="#666666"
     borderopacity="1"
     objecttolerance="10"
     gridtolerance="10"
     guidetolerance="10"
     inkscape:pageopacity="0"
     inkscape:pageshadow="2"
     inkscape:window-width="1366"
     inkscape:window-height="709"
     id="namedview5439"
     showgrid="false"
     inkscape:zoom="1.4142136"
     inkscape:cx="-52.904217"
     inkscape:cy="132.70387"
     inkscape:window-x="0"
     inkscape:window-y="0"
     inkscape:window-maximized="1"
     inkscape:current-layer="svg5436" />
  <path
     inkscape:connector-curvature="0"
     style="fill:#4ea06a;fill-opacity:1;stroke:none;stroke-width:1"
     id="corpus2"
     d="m 83.001725,0.00422095 c 4.53,0 11,-0.61 14.96001,1.56999995 6.589985,3.62 7.029985,8.7600001 7.039985,15.4300001 0,0 0,105.000009 0,105.000009 0,0 -53.999991,0 -53.999991,0 0,0 0,-122.00000905 0,-122.00000905 0,0 31.999996,0 31.999996,0 z" />
  <path
     inkscape:connector-curvature="0"
     style="fill:#8ac657;fill-opacity:1;stroke:none;stroke-width:1"
     id="corpus3"
     d="m 0.00470484,30.003983 c 0,-9.91 -2.87999984,-25.2299996 9.00000016,-29.29999979 2.410001,-0.81999992 5.46,-0.70000002 7.999999,-0.70000002 0,0 34.000001,0 34.000001,0 0,0 0,122.00000681 0,122.00000681 0,0 -51.00000016,0 -51.00000016,0 0,0 0,-92.000007 0,-92.000007 z" />
  <path
     id="corpus1"
     d="m 104.99375,121.99375 c 0,0 0,30 0,30 -0.01,3.31 0.27,6.88 -1.89,9.66 -2.85,3.67 -6.96,3.33 -11.11,3.34 0,0 -75,0 -75,0 -11.6099997,-0.02 -16.93999969,-3.85 -16.99999969,-16 0,0 0,-27 0,-27 0,0 104.99999969,0 104.99999969,0 z"
     style="fill:#3c5a92;fill-opacity:1;stroke:none;stroke-width:1"
     inkscape:connector-curvature="0" />
</svg>
